<?xml version="1.0" standalone="no"?>
<!DOCTYPE svg PUBLIC "-//W3C//DTD SVG 20010904//EN"
 "http://www.w3.org/TR/2001/REC-SVG-20010904/DTD/svg10.dtd">
<svg version="1.0" xmlns="http://www.w3.org/2000/svg"
 width="512.000000pt" height="512.000000pt" viewBox="0 0 512.000000 512.000000"
 preserveAspectRatio="xMidYMid meet">
<metadata>
Created by potrace 1.11, written by Peter Selinger 2001-2013
</metadata>
<g transform="translate(0.000000,512.000000) scale(0.100000,-0.100000)"
fill="#000000" stroke="none">
<path d="M2260 5105 c-311 -39 -634 -141 -910 -288 -113 -60 -320 -199 -423
-285 -490 -406 -802 -964 -904 -1612 -25 -162 -25 -557 0 -720 177 -1141 1031
-1999 2167 -2177 162 -25 587 -25 745 0 723 116 1353 514 1750 1107 216 323
344 652 412 1055 28 171 26 603 -5 780 -132 765 -571 1409 -1224 1797 -281
166 -606 282 -938 334 -147 23 -519 28 -670 9z m685 -264 c492 -88 899 -292
1240 -623 257 -248 442 -530 568 -863 148 -391 185 -837 106 -1255 -70 -367
-242 -740 -473 -1025 -65 -81 -255 -272 -335 -338 -310 -255 -690 -426 -1116
-504 -142 -25 -584 -26 -730 0 -403 71 -768 230 -1070 464 -519 405 -852 1030
-894 1683 -63 966 462 1858 1338 2273 201 95 494 178 726 206 140 17 503 7
640 -18z"/>
<path d="M2390 4583 c-412 -42 -792 -196 -1105 -448 -418 -335 -679 -803 -751
-1340 -24 -187 -15 -471 21 -644 108 -517 376 -944 787 -1254 792 -597 1915
-530 2637 158 579 552 784 1367 535 2125 -278 846 -1077 1418 -1964 1408 -69
-1 -141 -3 -160 -5z m700 -1732 c0 -652 3 -937 11 -960 14 -41 35 -51 103 -51
l56 0 -2 -567 -3 -568 -80 -27 c-107 -35 -292 -75 -387 -84 l-78 -7 0 624 0
624 37 3 c21 1 46 10 56 20 16 17 17 71 17 970 l0 952 135 0 135 0 0 -929z
m702 -20 c3 -909 4 -950 22 -969 11 -13 33 -22 60 -24 l41 -3 3 -353 4 -354
-29 -30 c-74 -78 -270 -216 -420 -295 l-103 -55 -1 429 c-1 235 -3 481 -5 546
l-3 117 60 0 c51 0 64 4 85 25 l25 25 -7 945 -7 945 136 0 137 0 2 -949z
m-2612 227 c1 -392 3 -769 5 -838 2 -69 4 -178 4 -242 1 -132 13 -158 71 -158
l30 0 0 -381 0 -381 -40 32 c-92 73 -279 301 -359 439 -45 77 -136 263 -146
299 -6 21 -4 22 53 22 45 0 66 5 86 21 l27 21 -2 843 c-1 800 0 844 17 871 10
16 40 59 67 97 l49 67 69 0 69 0 0 -712z m760 220 c0 -271 3 -967 7 -1545 3
-579 4 -1053 1 -1053 -12 0 -246 100 -288 123 -74 40 -152 87 -207 126 l-53
36 0 428 0 427 85 0 c79 0 88 2 112 26 l26 26 -7 949 -6 949 165 0 165 0 0
-492z m441 240 c1 -139 3 -291 4 -338 2 -47 4 -358 4 -691 1 -718 -11 -654
125 -654 l86 0 0 -140 c0 -77 3 -360 7 -629 l6 -489 -134 6 c-74 4 -183 16
-244 27 -60 12 -124 23 -142 27 l-32 5 -3 207 c-2 113 -4 679 -6 1256 -1 578
-5 1188 -8 1358 l-6 307 171 0 171 0 1 -252z m1939 -110 c181 -366 244 -764
184 -1163 -55 -358 -221 -721 -453 -985 l-30 -35 -1 308 0 307 84 0 c80 0 86
1 106 27 l21 27 -6 845 c-7 969 -18 895 95 669z"/>
</g>
</svg>
