<?xml version="1.0" standalone="no"?>
<!DOCTYPE svg PUBLIC "-//W3C//DTD SVG 20010904//EN"
 "http://www.w3.org/TR/2001/REC-SVG-20010904/DTD/svg10.dtd">
<svg version="1.0" xmlns="http://www.w3.org/2000/svg"
 width="1365.000000pt" height="1365.000000pt" viewBox="0 0 1365.000000 1365.000000"
 preserveAspectRatio="xMidYMid meet">
<metadata>
Created by potrace 1.11, written by Peter Selinger 2001-2013
</metadata>
<g transform="translate(0.000000,1365.000000) scale(0.100000,-0.100000)"
fill="#000000" stroke="none">
<path d="M6505 13643 c-298 -14 -798 -76 -1035 -130 -36 -8 -94 -20 -130 -28
-102 -21 -243 -55 -265 -64 -11 -5 -49 -16 -85 -25 -177 -45 -586 -188 -830
-291 -228 -96 -592 -279 -796 -401 -17 -11 -62 -37 -98 -59 -37 -22 -75 -45
-84 -50 -169 -101 -480 -328 -731 -534 -300 -245 -700 -657 -993 -1021 -207
-259 -502 -709 -628 -960 -18 -36 -40 -76 -49 -90 -9 -14 -28 -50 -41 -80 -13
-30 -29 -62 -36 -70 -13 -17 -128 -275 -205 -460 -104 -248 -265 -755 -316
-990 -51 -237 -64 -302 -73 -360 -6 -36 -18 -101 -25 -145 -19 -102 -52 -392
-65 -556 -23 -314 -21 -892 4 -1079 3 -19 12 -105 21 -190 28 -269 102 -675
170 -925 9 -33 20 -76 25 -95 4 -19 27 -98 50 -175 23 -77 47 -156 52 -175 6
-19 13 -39 17 -45 4 -5 13 -30 20 -55 46 -163 293 -738 391 -910 5 -8 41 -73
80 -145 39 -71 75 -137 80 -145 5 -8 28 -46 51 -85 223 -379 561 -826 869
-1150 339 -358 646 -626 1025 -897 79 -56 383 -258 389 -258 3 0 36 -19 73
-43 126 -80 391 -221 595 -315 150 -70 211 -97 343 -148 77 -30 160 -63 185
-73 66 -28 367 -127 441 -146 35 -9 115 -32 178 -51 63 -19 137 -38 165 -43
28 -4 114 -22 191 -39 662 -144 1442 -181 2160 -102 867 96 1726 370 2520 803
135 73 451 267 565 346 76 52 395 288 431 318 237 200 359 312 534 487 116
116 232 236 259 266 27 30 63 71 80 90 199 223 510 646 632 857 10 18 22 33
26 33 4 0 8 4 8 9 0 5 20 44 45 85 25 42 45 79 45 82 0 3 16 30 35 60 20 30
46 76 59 102 13 26 51 101 85 167 34 66 74 147 88 180 14 33 44 98 65 145 22
46 55 125 74 175 19 49 52 133 73 185 39 96 94 262 175 535 49 165 54 184 91
360 14 66 32 147 40 180 12 53 29 152 65 390 15 101 46 406 51 500 7 146 4
819 -4 920 -80 1006 -365 1963 -832 2800 -170 305 -223 388 -474 745 -40 58
-306 394 -332 420 -8 8 -76 83 -151 165 -169 186 -365 378 -538 526 -68 59
-73 62 -185 156 -63 52 -301 232 -365 276 -150 103 -337 225 -390 255 -36 20
-87 51 -115 69 -27 18 -54 33 -59 33 -5 0 -17 6 -25 14 -20 17 -402 212 -491
250 -36 15 -85 38 -110 51 -25 12 -63 28 -85 35 -22 7 -44 16 -50 20 -5 4 -35
15 -65 25 -30 10 -75 28 -100 40 -66 33 -473 168 -630 210 -129 34 -168 43
-425 102 -60 13 -153 31 -205 39 -52 7 -120 19 -150 25 -30 6 -73 12 -95 14
-22 2 -119 12 -215 23 -303 36 -721 50 -1045 35z m650 -658 c55 -3 125 -8 155
-9 129 -8 236 -17 250 -21 8 -3 38 -7 65 -10 68 -8 99 -13 170 -24 33 -6 76
-13 95 -16 19 -3 51 -8 70 -12 19 -4 44 -8 55 -9 22 -2 120 -25 235 -54 41
-11 109 -26 150 -35 133 -26 506 -146 627 -201 17 -8 37 -14 45 -14 8 0 31 -9
52 -20 22 -11 69 -29 105 -41 36 -12 68 -25 71 -29 3 -5 24 -13 46 -19 23 -6
47 -17 53 -25 7 -8 32 -20 56 -27 25 -7 45 -16 45 -20 0 -4 12 -10 27 -14 15
-3 52 -21 84 -40 31 -18 66 -36 77 -39 12 -4 45 -20 74 -37 29 -16 73 -39 98
-52 25 -12 47 -25 50 -28 3 -3 32 -21 65 -40 33 -19 69 -39 80 -46 11 -7 32
-17 48 -24 15 -6 27 -15 27 -20 0 -5 6 -9 13 -9 7 0 28 -13 47 -30 19 -16 39
-29 43 -30 4 0 58 -35 120 -77 148 -101 169 -116 183 -128 44 -39 65 -55 70
-55 3 0 12 -6 19 -12 31 -28 44 -38 50 -38 4 0 12 -6 19 -12 16 -15 33 -30
146 -123 47 -38 95 -80 106 -92 12 -13 24 -23 27 -23 12 0 368 -348 468 -457
40 -44 181 -211 212 -252 15 -20 32 -37 37 -39 6 -2 10 -10 10 -18 0 -8 3 -14
8 -14 12 0 260 -334 273 -367 5 -13 13 -23 19 -23 5 0 10 -5 10 -11 0 -6 14
-28 30 -49 17 -21 30 -40 30 -43 0 -3 17 -32 38 -64 22 -32 51 -80 66 -108 16
-27 33 -57 39 -65 14 -17 16 -21 87 -155 30 -55 73 -136 97 -180 23 -44 47
-91 53 -105 6 -14 24 -54 41 -90 65 -138 85 -186 134 -310 20 -52 43 -109 51
-127 8 -17 17 -45 20 -62 4 -17 11 -34 15 -37 5 -3 9 -12 9 -21 0 -8 6 -29 14
-46 7 -18 30 -86 51 -152 20 -66 41 -130 46 -143 5 -13 9 -33 9 -45 0 -13 5
-28 12 -35 7 -7 9 -12 6 -12 -3 0 5 -39 18 -87 14 -49 26 -99 28 -113 2 -14
12 -54 21 -90 14 -55 25 -105 39 -190 2 -8 6 -37 10 -65 4 -27 12 -66 16 -85
5 -19 11 -58 14 -85 3 -28 7 -57 10 -65 4 -14 8 -42 22 -190 2 -25 6 -58 8
-75 22 -149 29 -780 12 -1010 -5 -66 -10 -136 -11 -155 -5 -66 -21 -206 -29
-245 -2 -11 -9 -56 -15 -100 -16 -109 -30 -191 -43 -245 -5 -25 -12 -56 -14
-70 -2 -14 -5 -34 -7 -45 -7 -42 -40 -182 -57 -240 -10 -33 -30 -105 -45 -160
-29 -109 -32 -116 -107 -345 -28 -85 -54 -159 -58 -165 -4 -5 -13 -28 -20 -50
-12 -39 -17 -50 -59 -147 -12 -26 -21 -50 -21 -53 0 -17 -170 -370 -230 -480
-18 -33 -49 -89 -68 -125 -18 -36 -37 -69 -42 -75 -4 -5 -20 -32 -35 -60 -15
-27 -41 -69 -56 -93 -16 -24 -29 -47 -29 -53 0 -5 -4 -9 -10 -9 -5 0 -10 -5
-10 -10 0 -12 -41 -73 -52 -78 -5 -2 -8 -7 -8 -12 0 -8 -107 -168 -119 -180
-4 -3 -10 -12 -16 -21 -15 -23 -108 -150 -120 -163 -6 -6 -24 -29 -40 -51 -17
-22 -35 -44 -41 -50 -6 -5 -17 -19 -25 -31 -14 -21 -70 -88 -144 -172 -113
-129 -334 -354 -471 -479 -93 -85 -102 -93 -180 -158 -26 -22 -64 -54 -84 -71
-54 -47 -316 -244 -405 -305 -44 -30 -82 -57 -85 -60 -14 -15 -310 -194 -405
-244 -27 -15 -52 -30 -55 -33 -3 -4 -79 -44 -170 -88 -147 -73 -217 -106 -315
-149 -16 -7 -57 -25 -90 -40 -85 -37 -93 -40 -160 -65 -33 -13 -73 -29 -90
-36 -16 -7 -86 -31 -155 -54 -69 -23 -134 -45 -145 -50 -29 -12 -206 -63 -260
-74 -5 -2 -35 -10 -65 -18 -30 -9 -91 -23 -135 -32 -44 -10 -108 -24 -143 -32
-71 -17 -269 -53 -322 -58 -19 -2 -51 -6 -70 -10 -19 -3 -57 -9 -85 -12 -27
-3 -61 -7 -75 -9 -14 -2 -61 -7 -105 -11 -44 -3 -91 -8 -105 -10 -171 -22
-764 -22 -1030 1 -97 9 -170 17 -220 25 -30 5 -86 12 -125 16 -38 3 -73 8 -76
10 -3 2 -52 10 -110 19 -57 9 -120 20 -139 25 -19 5 -51 12 -70 15 -19 3 -48
10 -65 15 -25 8 -107 26 -209 46 -35 7 -511 154 -566 175 -30 11 -73 29 -95
39 -22 10 -66 26 -98 36 -31 10 -57 21 -57 25 0 3 -14 9 -31 13 -17 3 -61 20
-98 37 -36 17 -84 39 -106 49 -174 81 -428 211 -433 223 -2 4 -10 7 -18 7 -8
0 -38 16 -67 35 -28 19 -57 35 -64 35 -7 0 -13 4 -13 9 0 5 -13 14 -30 21 -16
7 -30 16 -30 21 0 5 -9 9 -20 9 -11 0 -20 5 -20 10 0 6 -6 10 -13 10 -8 0 -22
9 -32 20 -10 11 -24 20 -32 20 -7 0 -13 3 -13 8 0 4 -13 13 -28 20 -16 6 -38
21 -50 32 -12 11 -26 20 -32 20 -5 0 -10 5 -10 10 0 6 -5 10 -11 10 -6 0 -25
10 -42 23 -143 104 -192 142 -195 149 -2 4 -10 8 -18 8 -8 0 -14 3 -14 8 0 4
-17 18 -37 32 -20 14 -50 37 -65 52 -16 16 -32 28 -36 28 -4 0 -25 16 -47 36
-22 19 -66 56 -97 81 -32 25 -58 50 -58 54 0 5 -4 9 -8 9 -18 0 -364 338 -462
451 -86 100 -164 184 -172 187 -4 2 -8 8 -8 13 0 5 -8 17 -17 27 -49 51 -303
384 -303 397 0 6 -11 20 -38 50 -6 7 -12 16 -12 20 0 4 -20 33 -45 65 -25 32
-45 61 -45 64 0 4 -24 43 -53 89 -29 45 -59 96 -67 112 -8 17 -25 44 -37 60
-12 17 -27 41 -33 55 -6 14 -24 48 -39 75 -46 79 -171 329 -171 341 0 5 -6 16
-12 22 -7 7 -13 16 -13 20 -1 4 -13 32 -27 62 -14 30 -34 77 -43 103 -10 26
-22 50 -26 53 -5 3 -9 12 -9 19 0 8 -11 38 -24 67 -20 45 -45 112 -87 228 -4
14 -14 39 -20 55 -6 17 -13 41 -15 54 -2 13 -8 29 -13 34 -6 6 -11 21 -11 34
0 13 -4 31 -10 41 -11 20 -69 220 -98 337 -17 70 -25 101 -47 200 -11 48 -36
175 -46 230 -6 33 -14 80 -19 105 -5 25 -12 68 -15 95 -4 28 -8 62 -10 75 -1
14 -6 50 -9 80 -18 156 -17 140 -32 335 -11 128 -10 668 0 805 4 63 9 131 11
150 3 50 16 160 22 195 2 17 7 46 9 65 7 53 11 78 24 160 6 41 13 87 15 101 1
15 5 35 9 45 3 11 8 35 11 54 13 84 47 240 65 296 10 33 21 77 24 97 8 49 135
465 153 501 8 16 26 65 39 109 13 45 34 101 45 126 11 26 24 55 29 66 4 11 19
45 34 75 14 30 26 59 26 64 0 10 33 86 52 121 18 31 33 62 80 160 23 50 46 92
49 95 3 3 10 16 14 30 4 14 10 27 14 30 3 3 20 31 36 62 17 32 33 58 38 58 4
0 7 7 7 16 0 8 16 39 35 68 19 29 35 58 35 65 0 6 5 11 10 11 6 0 10 5 10 11
0 6 13 29 28 52 15 23 34 54 41 69 8 15 22 37 33 47 10 11 18 25 18 31 0 5 5
10 10 10 6 0 10 6 10 13 0 7 13 28 30 47 16 19 29 39 30 43 0 10 52 81 63 85
4 2 7 10 7 17 0 7 4 15 8 17 4 2 34 39 67 83 32 44 63 85 69 90 6 6 24 28 41
50 41 55 46 62 77 96 16 16 28 32 28 36 0 3 11 16 25 29 14 13 25 26 25 29 0
3 8 13 18 23 9 11 58 63 107 117 142 155 262 272 461 450 36 33 88 77 140 120
26 22 55 47 64 56 9 8 24 18 33 22 9 3 17 11 17 17 0 5 6 10 14 10 8 0 16 3
18 8 5 13 85 72 97 72 6 0 11 4 11 8 0 8 95 82 105 82 4 0 12 6 19 13 8 6 24
19 36 27 12 8 28 21 36 28 7 6 16 12 19 12 4 0 24 14 45 30 21 17 41 30 45 30
4 0 25 13 48 29 70 48 159 103 217 134 30 16 62 34 70 41 8 7 31 21 50 30 19
10 71 37 115 61 44 24 100 54 125 66 205 99 358 169 370 169 5 0 21 6 37 14
15 8 39 19 53 24 14 6 41 17 60 26 19 8 58 22 85 31 28 9 64 22 82 30 17 9 45
18 62 21 17 4 34 11 37 15 3 5 18 9 33 9 15 0 31 4 37 9 5 5 52 21 104 36 52
14 104 31 116 36 11 6 31 12 45 14 13 3 85 20 159 40 74 19 158 40 185 45 28
5 70 14 95 20 25 5 56 12 70 15 14 3 39 7 55 9 17 3 71 12 120 20 129 21 309
45 390 51 39 3 86 7 106 10 19 3 105 8 190 11 85 3 155 7 156 8 4 3 371 -4
458 -9z"/>
<path d="M6687 12234 c-1 -1 -56 -5 -122 -9 -178 -10 -211 -12 -310 -25 -49
-6 -108 -13 -130 -15 -41 -3 -310 -50 -355 -61 -14 -3 -43 -10 -65 -14 -98
-20 -195 -42 -260 -61 -38 -10 -97 -27 -130 -36 -33 -9 -64 -20 -70 -25 -5 -4
-21 -8 -35 -8 -15 0 -29 -3 -32 -6 -3 -3 -61 -25 -129 -49 -68 -24 -146 -52
-174 -63 -132 -51 -214 -86 -255 -107 -25 -12 -61 -29 -80 -36 -19 -7 -42 -18
-51 -26 -8 -7 -18 -13 -22 -13 -21 0 -237 -114 -425 -226 -45 -27 -90 -54
-100 -59 -9 -6 -45 -29 -80 -53 -35 -23 -66 -42 -68 -42 -3 0 -10 -5 -17 -10
-7 -6 -77 -58 -157 -116 -80 -58 -156 -115 -170 -127 -14 -12 -48 -40 -75 -62
-28 -22 -55 -44 -61 -50 -6 -5 -39 -35 -74 -65 -157 -136 -243 -220 -420 -410
-98 -106 -113 -123 -162 -182 -18 -23 -40 -49 -48 -57 -9 -9 -29 -34 -45 -56
-16 -22 -37 -49 -47 -60 -48 -56 -238 -331 -238 -344 0 -6 -5 -11 -10 -11 -6
0 -20 -20 -32 -45 -12 -25 -26 -45 -30 -45 -4 0 -8 -5 -8 -11 0 -6 -8 -23 -19
-37 -20 -29 -34 -53 -100 -172 -23 -41 -46 -82 -51 -90 -14 -23 -135 -269
-159 -325 -12 -27 -33 -72 -46 -100 -14 -27 -31 -68 -39 -90 -8 -22 -35 -96
-61 -165 -80 -212 -165 -499 -207 -690 -5 -25 -16 -71 -24 -102 -8 -32 -14
-70 -14 -85 0 -16 -7 -49 -14 -75 -8 -25 -12 -49 -9 -51 3 -3 0 -21 -5 -39 -6
-18 -13 -58 -16 -88 -4 -30 -10 -89 -16 -130 -5 -41 -12 -109 -16 -150 -3 -41
-8 -95 -11 -120 -8 -83 -10 -574 -2 -675 4 -55 9 -136 13 -180 3 -44 7 -89 9
-100 3 -11 8 -49 12 -85 9 -87 11 -103 25 -185 7 -38 14 -83 16 -100 3 -16 9
-43 14 -60 4 -16 11 -48 14 -70 10 -67 15 -91 52 -233 20 -75 38 -144 40 -152
2 -8 10 -35 17 -60 8 -25 16 -49 17 -55 3 -13 1 -6 50 -155 22 -69 45 -134 50
-145 4 -11 20 -51 35 -90 15 -38 33 -86 41 -105 9 -19 19 -44 24 -55 33 -78
137 -303 150 -325 5 -8 26 -46 46 -85 19 -38 41 -79 48 -90 6 -11 24 -42 39
-70 15 -27 36 -63 47 -80 10 -16 28 -48 40 -70 12 -22 43 -70 69 -108 25 -37
50 -76 56 -87 5 -11 13 -20 17 -20 5 0 8 -5 8 -10 0 -6 31 -52 70 -104 38 -51
70 -98 70 -104 0 -7 4 -12 8 -12 5 0 29 -28 54 -62 25 -35 57 -75 69 -89 28
-30 76 -87 122 -142 103 -128 355 -379 532 -532 38 -33 76 -67 85 -75 9 -8 33
-28 54 -45 21 -16 44 -36 51 -42 8 -7 18 -13 24 -13 5 0 14 -6 18 -13 4 -7 33
-30 63 -52 30 -22 57 -43 58 -47 2 -5 10 -8 18 -8 8 0 14 -4 14 -8 0 -5 34
-31 75 -58 41 -27 75 -52 75 -56 0 -5 7 -8 15 -8 9 0 21 -5 28 -10 48 -41 62
-50 74 -50 7 0 13 -4 13 -9 0 -5 8 -11 18 -15 9 -3 44 -24 77 -45 33 -22 80
-50 105 -63 25 -13 47 -26 48 -30 2 -5 8 -8 13 -8 6 0 27 -11 47 -25 20 -14
45 -25 54 -25 10 0 18 -4 18 -9 0 -5 14 -12 30 -16 16 -4 30 -10 30 -14 0 -4
16 -14 35 -21 20 -8 41 -20 47 -27 6 -7 17 -13 25 -13 8 0 60 -22 116 -49 56
-26 113 -52 127 -56 14 -4 30 -11 35 -15 6 -4 35 -15 65 -25 30 -10 78 -29
105 -42 65 -31 585 -190 650 -198 28 -4 71 -13 96 -21 25 -8 59 -16 75 -18 16
-2 47 -9 69 -14 22 -6 60 -13 85 -16 25 -3 74 -10 110 -16 108 -19 124 -22
140 -21 8 0 47 -4 85 -9 39 -5 104 -12 145 -15 41 -4 100 -9 130 -11 84 -8
532 -8 650 0 95 6 278 22 340 30 14 2 66 9 115 15 50 6 113 16 140 21 121 24
206 42 290 61 50 11 108 24 130 29 22 5 78 21 125 35 47 15 94 28 105 30 50
11 356 117 433 152 29 12 57 23 62 23 6 0 18 4 28 9 39 20 109 49 132 56 14 4
32 13 40 20 8 7 33 18 55 25 22 7 47 18 55 25 8 7 60 34 115 60 55 26 102 51
105 54 3 4 34 22 70 40 36 18 79 41 95 52 17 10 37 22 45 26 8 3 17 9 20 12 8
9 43 30 70 42 13 5 27 13 30 17 7 9 88 62 95 62 4 0 42 27 85 60 43 33 84 60
89 60 6 0 11 5 11 10 0 6 7 10 15 10 9 0 18 7 21 15 4 8 10 15 15 15 13 0 109
72 109 82 0 4 4 8 9 8 8 0 51 34 92 73 11 9 21 17 24 17 3 0 13 8 24 18 10 9
33 30 52 45 99 83 168 147 314 294 167 169 265 272 265 281 0 2 11 15 25 28
14 13 25 26 25 29 0 3 8 13 18 23 9 10 31 35 47 56 17 21 35 43 40 50 6 6 23
29 39 51 17 22 33 42 36 45 15 13 80 109 80 119 0 6 4 11 9 11 5 0 26 27 47
60 22 33 42 60 47 60 4 0 7 7 7 15 0 8 5 15 10 15 6 0 10 5 10 11 0 6 14 30
30 54 17 24 30 48 30 54 0 6 5 11 10 11 6 0 10 5 10 10 0 6 16 34 35 63 19 28
35 57 35 64 0 7 3 13 8 13 4 0 13 15 21 32 8 18 17 35 20 38 4 3 19 30 35 60
16 30 35 66 42 80 8 14 14 31 14 38 0 6 4 12 9 12 5 0 12 13 16 30 4 16 10 30
13 30 4 0 13 15 21 32 7 18 28 65 46 103 18 39 36 81 40 95 4 14 18 43 30 65
12 22 30 65 40 95 10 30 24 66 31 80 8 14 32 86 54 160 23 74 45 144 51 155 5
11 11 31 14 45 3 14 24 93 49 175 43 147 71 266 80 335 3 19 12 67 20 105 14
67 19 95 30 175 19 135 26 188 25 205 0 11 2 40 5 65 10 79 18 173 21 255 5
117 5 474 0 520 -2 22 -6 85 -10 140 -4 55 -8 116 -11 135 -16 132 -36 289
-39 311 -3 15 -7 44 -10 65 -5 39 -7 48 -18 94 -3 14 -11 54 -17 90 -12 66
-42 193 -62 265 -6 22 -12 45 -13 50 -1 6 -3 12 -4 15 -2 3 -4 12 -6 20 -15
72 -116 383 -141 433 -8 16 -14 33 -14 39 0 5 -18 56 -40 111 -46 115 -44 110
-100 232 -79 171 -101 214 -111 220 -5 4 -7 10 -4 15 3 5 1 11 -4 14 -5 4 -19
27 -32 54 -12 26 -29 55 -37 65 -8 9 -12 17 -9 17 6 0 -43 86 -104 185 -10 17
-22 37 -26 45 -4 8 -26 43 -50 77 -24 35 -43 68 -43 73 0 6 -4 10 -10 10 -5 0
-10 5 -10 11 0 6 -20 37 -45 69 -25 32 -45 61 -45 65 0 4 -6 13 -12 20 -30 34
-38 45 -38 55 0 6 -7 13 -15 16 -8 4 -15 13 -15 20 0 8 -7 17 -15 20 -8 4 -15
12 -15 20 0 8 -4 14 -8 14 -5 0 -28 27 -52 60 -24 33 -47 60 -52 60 -4 0 -8 6
-8 14 0 8 -4 16 -9 18 -4 2 -37 37 -72 78 -164 193 -462 487 -633 625 -21 17
-48 39 -60 50 -33 28 -55 46 -101 80 -39 29 -48 36 -79 63 -8 6 -19 12 -25 12
-5 0 -11 4 -13 8 -1 5 -34 30 -73 57 -38 26 -71 52 -73 57 -2 4 -8 8 -14 8
-12 0 -102 61 -106 72 -2 4 -10 8 -19 8 -15 0 -75 38 -81 52 -2 4 -8 8 -14 8
-5 0 -22 8 -36 19 -15 10 -56 34 -92 53 -36 19 -83 46 -105 59 -22 14 -60 33
-85 44 -25 10 -56 26 -70 36 -32 21 -108 56 -143 64 -15 4 -27 10 -27 14 0 3
-15 12 -32 20 -18 7 -55 24 -83 36 -27 12 -61 26 -75 30 -14 4 -29 11 -35 15
-5 4 -28 13 -50 20 -22 7 -44 16 -50 20 -5 4 -35 15 -65 24 -30 10 -68 24 -85
31 -43 20 -231 80 -322 104 -131 34 -326 80 -368 87 -22 3 -44 8 -48 11 -5 3
-34 9 -65 14 -31 5 -86 14 -122 20 -36 6 -74 12 -85 13 -11 1 -36 5 -55 9 -19
4 -62 9 -95 12 -33 3 -73 7 -90 9 -49 7 -183 17 -295 22 -100 5 -420 11 -423
8z m1543 -2234 c1 -41 3 -457 5 -925 2 -467 7 -1412 10 -2100 9 -2056 7 -1924
31 -1966 24 -44 38 -58 84 -84 30 -17 55 -20 178 -21 78 -1 145 -3 147 -6 5
-4 10 -864 17 -2510 1 -274 0 -500 -3 -502 -6 -6 -194 -70 -324 -111 -156 -48
-398 -107 -590 -145 -33 -7 -80 -16 -105 -21 -44 -8 -105 -16 -185 -24 -22 -3
-80 -9 -130 -15 -49 -5 -100 -10 -112 -10 l-21 0 -2 273 c0 149 -3 623 -5
1052 -7 1504 -8 1992 -2 2002 4 6 30 10 59 9 94 -3 206 41 207 82 1 6 5 12 9
12 25 0 29 106 26 747 -2 368 -5 1210 -8 1873 -4 663 -7 1486 -8 1830 l-3 625
200 2 c110 2 218 4 240 5 22 2 95 3 162 3 l123 0 0 -75z m1867 -205 c1 -154 4
-867 8 -1585 13 -2975 15 -3164 25 -3174 5 -5 10 -17 10 -26 0 -25 52 -78 96
-96 26 -11 64 -16 116 -16 42 1 79 -2 82 -6 3 -5 7 -436 10 -959 l5 -950 -77
-69 c-42 -38 -84 -77 -94 -87 -10 -9 -20 -17 -23 -17 -3 0 -13 -8 -24 -18 -10
-9 -33 -28 -51 -42 -17 -14 -37 -30 -44 -35 -35 -32 -206 -165 -231 -181 -16
-10 -62 -42 -102 -71 -40 -29 -75 -53 -79 -53 -4 0 -22 -11 -40 -25 -18 -14
-35 -25 -37 -25 -2 0 -35 -20 -73 -45 -37 -25 -72 -45 -77 -45 -5 0 -23 -10
-40 -22 -36 -26 -55 -36 -287 -154 -90 -46 -170 -84 -177 -84 -9 0 -13 17 -13
58 -2 144 -9 1639 -12 2197 -1 341 1 625 4 631 4 6 58 11 141 11 147 1 187 12
236 60 51 52 53 71 52 512 -2 445 -8 1919 -16 3553 l-5 1046 358 -1 357 -2 2
-280z m-3751 263 c6 -4 10 -171 12 -460 2 -549 11 -2644 16 -3739 4 -845 5
-851 53 -903 49 -54 80 -60 305 -60 l208 -1 1 -50 c0 -27 2 -464 5 -970 2
-506 6 -1236 8 -1622 3 -515 1 -703 -8 -706 -21 -8 -420 4 -546 17 -25 2 -81
7 -125 11 -44 3 -90 9 -102 12 -12 3 -39 6 -60 8 -21 2 -63 8 -93 14 -30 6
-82 16 -115 22 -33 6 -67 12 -75 13 -8 2 -33 6 -55 10 -22 4 -71 15 -110 25
-38 11 -96 24 -127 30 l-57 12 0 152 c-4 586 -30 6451 -34 7544 l-3 641 135 1
c74 1 136 3 137 4 6 5 621 0 630 -5z m-3199 -551 c1 -293 5 -1153 8 -1912 3
-759 7 -1654 9 -1990 l4 -610 23 -43 c12 -23 32 -48 43 -56 31 -19 115 -43
161 -45 21 -1 41 -4 44 -6 6 -7 15 -2034 9 -2040 -10 -11 -414 383 -488 474
-19 24 -51 61 -70 82 -19 21 -46 52 -60 70 -14 18 -34 43 -45 55 -11 12 -28
33 -37 46 -9 13 -54 73 -100 134 -46 62 -89 120 -96 130 -103 153 -150 225
-165 254 -10 19 -27 49 -37 65 -11 17 -23 37 -27 45 -4 8 -24 43 -45 78 -21
34 -38 66 -38 70 0 4 -6 14 -12 21 -7 6 -13 15 -13 19 -1 4 -24 55 -53 114
-29 59 -52 111 -52 116 0 5 -7 15 -15 22 -8 7 -15 19 -15 27 0 8 -11 38 -24
66 -88 190 -100 231 -69 239 10 3 68 4 128 3 176 -2 232 17 285 102 l28 44 -4
872 c-6 1274 -13 2787 -14 3216 -1 206 2 377 7 380 14 10 53 70 53 81 0 5 5
10 10 10 6 0 10 6 10 14 0 8 3 16 8 18 4 2 25 31 47 65 22 35 43 63 48 63 4 0
7 7 7 15 0 8 5 15 10 15 6 0 10 5 10 10 0 6 8 18 18 28 9 11 35 43 57 71 22
29 48 62 58 73 9 12 17 25 17 29 0 4 77 8 172 8 94 1 174 3 177 6 22 23 26
-51 28 -548z m2023 245 c0 -169 3 -687 5 -1152 5 -1029 13 -2642 21 -4485 3
-759 7 -1588 8 -1843 2 -254 2 -462 0 -462 -12 0 -142 44 -150 51 -6 5 -36 16
-65 25 -30 9 -67 22 -84 29 -16 8 -51 23 -77 34 -181 79 -229 101 -268 121
-19 10 -82 43 -140 73 -58 30 -125 66 -150 81 -25 15 -53 29 -62 33 -10 3 -18
9 -18 14 0 5 -6 9 -13 9 -8 0 -36 16 -63 35 -27 19 -55 35 -61 35 -7 0 -13 5
-13 10 0 6 -5 10 -10 10 -6 0 -20 9 -32 20 -11 10 -35 26 -52 34 -17 8 -41 24
-53 35 -12 12 -25 21 -28 21 -4 0 -36 21 -71 48 -62 45 -64 49 -65 92 -1 75
-8 1439 -9 1843 -1 209 1 381 4 384 3 3 103 6 223 8 181 2 224 5 248 18 17 9
37 19 45 22 23 9 58 65 68 110 4 22 7 256 6 520 -18 3728 -21 4525 -18 4528 2
1 199 3 438 5 l435 2 1 -308z m6120 -237 c11 -16 29 -48 41 -70 12 -22 24 -42
28 -45 36 -29 285 -543 347 -715 9 -27 20 -54 24 -60 3 -5 12 -30 20 -55 7
-25 17 -49 22 -55 4 -5 8 -15 8 -23 0 -8 6 -28 13 -45 16 -38 25 -64 71 -222
36 -123 73 -273 100 -405 23 -114 26 -130 36 -195 5 -33 11 -69 14 -80 2 -11
7 -49 11 -85 7 -65 12 -108 20 -165 2 -16 7 -77 10 -135 4 -58 9 -112 11 -120
6 -16 5 -453 -1 -545 -7 -119 -16 -230 -20 -255 -2 -14 -7 -52 -10 -85 -4 -33
-13 -103 -21 -155 -9 -52 -18 -111 -20 -130 -6 -45 -32 -171 -49 -235 -7 -27
-16 -68 -20 -90 -4 -22 -9 -51 -12 -65 -6 -36 -132 -446 -150 -489 -8 -20 -23
-54 -33 -76 -10 -23 -22 -54 -26 -70 -4 -17 -18 -50 -31 -74 -12 -24 -23 -50
-23 -58 0 -7 -11 -34 -24 -61 -14 -26 -61 -121 -105 -212 -45 -91 -91 -183
-104 -205 -13 -22 -36 -62 -51 -89 -15 -26 -45 -75 -66 -108 -22 -33 -40 -64
-40 -69 0 -5 -4 -9 -10 -9 -5 0 -10 -5 -10 -10 0 -13 -120 -194 -132 -198 -4
-2 -8 -8 -8 -13 0 -6 -11 -22 -24 -36 -13 -14 -30 -37 -38 -52 -7 -14 -20 -33
-28 -42 -25 -27 -50 -59 -50 -64 0 -3 -8 -13 -17 -23 -10 -11 -27 -30 -38 -43
-75 -92 -168 -200 -175 -204 -6 -4 -10 84 -10 212 0 120 -1 486 -3 813 l-2
595 120 2 c66 1 125 3 130 3 6 1 42 1 82 0 66 -1 76 2 125 33 37 23 60 47 75
78 l21 44 -3 765 c-11 2362 -17 3741 -15 3755 1 6 6 1 11 -10 5 -11 18 -33 29
-50z"/>
</g>
</svg>
